<?xml version="1.0" standalone="no"?>
<!DOCTYPE svg PUBLIC "-//W3C//DTD SVG 20010904//EN"
 "http://www.w3.org/TR/2001/REC-SVG-20010904/DTD/svg10.dtd">
<svg version="1.0" xmlns="http://www.w3.org/2000/svg"
 width="700.000000pt" height="700.000000pt" viewBox="0 0 700.000000 700.000000"
 preserveAspectRatio="xMidYMid meet">
<metadata>
Created by potrace 1.11, written by Peter Selinger 2001-2013
</metadata>
<g transform="translate(0.000000,700.000000) scale(0.100000,-0.100000)"
fill="#000000" stroke="none">
<path d="M125 4858 c1 -1179 5 -2165 9 -2193 22 -164 26 -192 30 -210 2 -11 9
-49 16 -85 60 -318 207 -687 384 -970 58 -91 169 -248 218 -306 430 -513 945
-842 1568 -1003 63 -16 133 -32 155 -35 51 -8 82 -14 103 -20 9 -3 46 -8 82
-11 36 -4 79 -9 95 -12 50 -10 1315 -12 1395 -3 41 5 100 12 130 15 30 3 62 8
70 10 8 2 31 6 50 9 42 7 61 10 158 31 88 19 244 66 353 106 463 169 887 463
1219 844 248 285 457 655 575 1020 47 145 101 380 111 480 3 28 7 56 9 62 16
48 20 452 20 2308 l0 2100 -725 3 -725 2 0 -2062 c1 -1135 -3 -2092 -7 -2128
-18 -155 -34 -229 -79 -357 -127 -360 -405 -674 -744 -841 -138 -68 -297 -121
-408 -137 -27 -3 -59 -9 -70 -12 -37 -9 -314 -11 -359 -3 -24 5 -59 10 -78 13
-111 16 -264 64 -387 122 -484 228 -803 682 -859 1220 -1 17 -3 965 -3 2108
l-1 2077 -1154 0 -1153 0 2 -2142z"/>
</g>
</svg>
