<svg width="803" height="826" viewBox="0 0 803 826" fill="none" xmlns="http://www.w3.org/2000/svg">
<g id="undraw_Playful_cat_rchv 1" clip-path="url(#clip0)">
<g id="Cat">
<path id="Tail" d="M593.59 383.919C607.945 385.36 622.344 382.083 636.196 378.049C663.66 370.05 692.157 357.342 706.394 332.531C711.594 323.47 714.546 313.324 717.451 303.289C723.317 283.031 729.223 262.539 730.166 241.47C731.179 218.291 726.155 195.245 715.586 174.591C714.035 171.471 711.405 169.018 708.185 167.687C702.577 165.483 699.496 168.495 697.047 171.632C682.197 190.666 683.735 217.163 682.494 241.273C681.245 265.44 676.511 289.3 668.438 312.114C665.01 321.792 660.492 331.866 651.788 337.313C646.456 340.649 640.112 341.872 633.931 343.033C624.687 344.769 614.596 346.388 606.309 341.941C597.823 337.387 592.21 325.586 582.418 323.624C572.729 321.683 559.507 331.833 555.182 340.385C543.468 363.547 574.373 381.989 593.59 383.919Z" fill="#FFD180"/>
<g id="Group" opacity="0.1">
<path id="Vector" opacity="0.1" d="M651.788 337.313C646.456 340.649 640.112 341.872 633.931 343.033C627.581 344.225 620.844 345.313 614.554 344.467C622.452 347.76 631.702 346.318 640.245 344.714C646.426 343.553 652.77 342.33 658.102 338.994C666.806 333.547 671.324 323.473 674.752 313.795C682.825 290.982 687.559 267.122 688.808 242.954C690.048 218.844 688.511 192.348 703.362 173.313C705.082 171.109 707.136 169.006 710.138 168.692C709.517 168.302 708.864 167.966 708.185 167.687C702.578 165.483 699.495 168.494 697.048 171.632C682.197 190.666 683.734 217.163 682.494 241.273C681.245 265.44 676.511 289.3 668.438 312.113C665.01 321.792 660.492 331.866 651.788 337.313Z" fill="black"/>
<path id="Vector_2" opacity="0.1" d="M561.496 342.066C565.494 334.162 577.087 324.914 586.471 325.088C585.195 324.414 583.83 323.921 582.418 323.624C572.729 321.683 559.507 331.833 555.182 340.385C544.256 361.989 570.406 379.481 589.569 383.303C571.566 377.38 551.735 361.367 561.496 342.066Z" fill="black"/>
</g>
<path id="Vector_3" opacity="0.1" d="M639.335 255.292L472.649 172.265L448.615 220.516L615.301 303.543L639.335 255.292Z" fill="black"/>
<path id="Vector_4" d="M639.335 255.292L472.649 172.265L450.8 216.13L617.486 299.157L639.335 255.292Z" fill="#6C63FF"/>
<path id="Vector_5" d="M579.347 229.266C595.586 229.266 608.75 216.102 608.75 199.863C608.75 183.624 595.586 170.46 579.347 170.46C563.109 170.46 549.944 183.624 549.944 199.863C549.944 216.102 563.109 229.266 579.347 229.266Z" fill="#6C63FF"/>
<path id="Vector_6" d="M557.011 46.5434C557.011 46.5434 607.92 60.3444 626.456 81.1337C626.456 81.1337 656.487 55.6445 670.375 62.5626C684.264 69.4807 663.528 122.712 663.528 122.712L645.15 206.01C645.15 206.01 654.707 407.232 525.236 446.75C395.765 486.269 302.998 324.496 332.976 264.311C362.954 204.126 452.994 92.9624 452.994 92.9624C452.994 92.9624 531.505 4.94712 545.376 0.299946C559.247 -4.34722 557.011 46.5434 557.011 46.5434Z" fill="#FFD180"/>
<g id="Cat_2" opacity="0.1">
<path id="Vector_7" opacity="0.1" d="M634.443 308.666C642.332 275.037 645.929 240.544 645.15 206.01L642.248 219.164C642.941 249.194 640.324 279.209 634.443 308.666V308.666Z" fill="white"/>
<path id="Vector_8" opacity="0.1" d="M347.482 255.972C377.461 195.787 450.093 106.116 450.093 106.116C450.093 106.116 528.603 18.1009 542.474 13.4538C556.345 8.80651 554.109 59.6971 554.109 59.6971C554.109 59.6971 605.017 73.4982 623.554 94.2877C623.554 94.2877 653.585 68.7985 667.473 75.7164C672.864 78.4016 673.03 88.0694 671.225 98.8882C675.242 83.7505 677.922 66.3217 670.375 62.5625C656.487 55.6447 626.456 81.1338 626.456 81.1338C607.92 60.3443 557.011 46.5433 557.011 46.5433C557.011 46.5433 559.247 -4.34734 545.376 0.299962C531.505 4.94709 452.995 92.9626 452.995 92.9626C452.995 92.9626 380.363 182.633 350.384 242.818C347.676 248.255 346.622 257.698 347.482 255.972Z" fill="white"/>
</g>
<path id="Vector_9" d="M606.933 182.873C612.646 182.873 617.278 178.242 617.278 172.529C617.278 166.816 612.646 162.185 606.933 162.185C601.22 162.185 596.589 166.816 596.589 172.529C596.589 178.242 601.22 182.873 606.933 182.873Z" fill="#58555D"/>
<path id="Vector_10" d="M500.452 129.835C506.165 129.835 510.797 125.203 510.797 119.49C510.797 113.777 506.165 109.146 500.452 109.146C494.739 109.146 490.108 113.777 490.108 119.49C490.108 125.203 494.739 129.835 500.452 129.835Z" fill="#58555D"/>
<path id="Vector_11" d="M565.285 163.34C567.832 158.226 563.678 150.984 556.008 147.163C548.337 143.342 540.054 144.39 537.507 149.504C534.96 154.618 539.113 161.861 546.784 165.681C554.454 169.502 562.737 168.454 565.285 163.34Z" fill="#58555D"/>
<path id="Vector_12" d="M635.336 183.85L634.088 188.871L680.364 200.376L681.612 195.354L635.336 183.85Z" fill="#FFD180"/>
<path id="Vector_13" d="M626.171 202.369L624.814 207.359L675.711 221.199L677.068 216.209L626.171 202.369Z" fill="#FFD180"/>
<path id="Vector_14" d="M435.208 55.4204L431.35 58.8597L468.422 100.438L472.28 96.9991L435.208 55.4204Z" fill="#FFD180"/>
<path id="Vector_15" d="M409.352 71.2576L406.369 75.4825L461.941 114.72L464.924 110.495L409.352 71.2576Z" fill="#FFD180"/>
<path id="Vector_16" opacity="0.1" d="M463.119 284.848C463.119 284.848 460.441 370.887 415.206 355.799C369.971 340.711 421.429 285.726 421.429 285.726C421.429 285.726 426.755 264.439 417 258.228" fill="black"/>
<path id="Vector_17" opacity="0.1" d="M502.864 302.525C502.864 302.525 431.279 350.334 468.022 380.729C504.764 411.123 524.182 338.362 524.182 338.362C524.182 338.362 539.425 322.577 549.858 327.567" fill="black"/>
<path id="Vector_18" d="M460.304 281.006C460.304 281.006 457.626 367.046 412.391 351.958C367.156 336.869 418.614 281.885 418.614 281.885C418.614 281.885 423.94 260.597 414.185 254.386" fill="#FFD180"/>
<path id="Vector_19" d="M507.254 301.045C507.254 301.045 435.67 348.855 472.412 379.249C509.155 409.644 528.573 336.883 528.573 336.883C528.573 336.883 543.816 321.097 554.249 326.088" fill="#FFD180"/>
<path id="Vector_20" opacity="0.5" d="M406.047 330.708L399.243 344.367L399.974 344.731L406.778 331.072L406.047 330.708Z" fill="#58555D"/>
<path id="Vector_21" opacity="0.5" d="M417.744 336.534L410.94 350.193L411.671 350.558L418.475 336.898L417.744 336.534Z" fill="#58555D"/>
<path id="Vector_22" opacity="0.5" d="M413.566 329.014L404.043 348.133L404.774 348.498L414.297 329.378L413.566 329.014Z" fill="#58555D"/>
<path id="Vector_23" opacity="0.5" d="M483.535 365.655L476.732 379.315L477.463 379.679L484.266 366.019L483.535 365.655Z" fill="#58555D"/>
<path id="Vector_24" opacity="0.5" d="M495.233 371.482L488.429 385.141L489.16 385.505L495.964 371.846L495.233 371.482Z" fill="#58555D"/>
<path id="Vector_25" opacity="0.5" d="M491.055 363.962L481.531 383.081L482.262 383.445L491.786 364.326L491.055 363.962Z" fill="#58555D"/>
<path id="Vector_26" opacity="0.1" d="M510.359 209.906C498.233 203.875 486.648 196.814 475.73 188.801C441.326 163.51 422.805 133.902 422.143 132.817L427.478 126.14C427.633 126.394 448.287 157.548 481.394 181.794C511.867 204.111 570.049 230.948 644.334 227.831L644.711 236.823C590.796 239.085 541.933 225.632 510.359 209.906Z" fill="black"/>
<path id="Vector_27" d="M509.555 215.656L509.396 215.182C510.217 215.028 510.992 214.686 511.659 214.184C512.326 213.681 512.868 213.031 513.242 212.284C513.617 211.537 513.813 210.713 513.816 209.878C513.82 209.043 513.63 208.218 513.261 207.468L513.715 207.258C514.113 208.071 514.319 208.965 514.317 209.871C514.315 210.777 514.105 211.67 513.702 212.481C513.3 213.293 512.717 214.001 511.998 214.551C511.279 215.102 510.443 215.48 509.555 215.656Z" fill="#4D8AF0"/>
<path id="Vector_28" opacity="0.1" d="M509.555 215.656L509.396 215.182C510.217 215.028 510.992 214.686 511.659 214.184C512.326 213.681 512.868 213.031 513.242 212.284C513.617 211.537 513.813 210.713 513.816 209.878C513.82 209.043 513.63 208.218 513.261 207.468L513.715 207.258C514.113 208.071 514.319 208.965 514.317 209.871C514.315 210.777 514.105 211.67 513.702 212.481C513.3 213.293 512.717 214.001 511.998 214.551C511.279 215.102 510.443 215.48 509.555 215.656Z" fill="black"/>
<path id="Vector_29" d="M645.226 226.041C570.941 229.157 512.759 202.321 482.285 180.004C449.179 155.758 428.525 124.603 428.37 124.35L420.687 129.038C421.349 130.124 442.218 161.719 476.621 187.011C487.539 195.024 499.125 202.085 511.251 208.115C542.824 223.842 591.688 237.295 645.603 235.033L645.226 226.041ZM513.042 208.258C512.865 208.17 512.718 208.031 512.62 207.86C512.522 207.688 512.477 207.491 512.491 207.294C512.504 207.096 512.576 206.908 512.697 206.751C512.818 206.595 512.983 206.478 513.17 206.415C513.358 206.352 513.56 206.346 513.751 206.398C513.942 206.45 514.113 206.558 514.243 206.707C514.372 206.856 514.455 207.04 514.48 207.237C514.505 207.433 514.471 207.632 514.383 207.809C514.325 207.927 514.244 208.031 514.144 208.118C514.045 208.204 513.93 208.27 513.806 208.311C513.681 208.353 513.55 208.37 513.419 208.361C513.288 208.352 513.16 208.317 513.042 208.258Z" fill="#F55F44"/>
<path id="Vector_30" opacity="0.1" d="M497.849 216.331C496.667 218.705 496.476 221.451 497.318 223.966C498.161 226.481 499.968 228.558 502.342 229.741V229.741C504.716 230.923 507.462 231.114 509.977 230.272C512.492 229.429 514.569 227.622 515.751 225.248V225.248C516.934 222.874 517.125 220.128 516.282 217.613C515.44 215.098 513.633 213.021 511.259 211.839V211.839C508.885 210.656 506.138 210.465 503.624 211.308C501.109 212.15 499.032 213.957 497.849 216.331V216.331ZM509.03 216.314C508.734 216.167 508.49 215.936 508.326 215.65C508.162 215.364 508.087 215.035 508.11 214.707C508.133 214.378 508.253 214.063 508.454 213.802C508.656 213.542 508.931 213.347 509.243 213.242C509.556 213.137 509.892 213.127 510.21 213.214C510.529 213.301 510.814 213.48 511.03 213.728C511.246 213.977 511.384 214.284 511.426 214.611C511.468 214.938 511.412 215.27 511.265 215.565C511.067 215.961 510.721 216.262 510.302 216.403C509.883 216.543 509.425 216.511 509.03 216.314L509.03 216.314Z" fill="url(#paint0_linear)"/>
<path id="Vector_31" d="M498.744 216.777C497.68 218.914 497.508 221.385 498.266 223.649C499.025 225.912 500.651 227.781 502.787 228.846C504.924 229.91 507.396 230.082 509.659 229.324C511.923 228.565 513.792 226.939 514.856 224.802V224.802C515.92 222.666 516.092 220.194 515.334 217.931C514.576 215.667 512.949 213.798 510.813 212.734V212.734C508.676 211.669 506.204 211.498 503.941 212.256C501.678 213.014 499.808 214.64 498.744 216.777V216.777ZM508.807 216.762C508.541 216.629 508.321 216.421 508.173 216.164C508.026 215.906 507.958 215.611 507.979 215.315C508 215.019 508.107 214.736 508.289 214.501C508.471 214.267 508.718 214.091 508.999 213.997C509.28 213.903 509.583 213.894 509.869 213.972C510.156 214.05 510.412 214.211 510.607 214.435C510.802 214.658 510.926 214.935 510.963 215.229C511.001 215.523 510.95 215.822 510.818 216.088C510.73 216.264 510.608 216.421 510.46 216.551C510.311 216.68 510.139 216.779 509.952 216.841C509.765 216.904 509.568 216.929 509.371 216.915C509.175 216.902 508.983 216.85 508.807 216.762V216.762Z" fill="#4D8AF0"/>
<path id="Vector_32" d="M509.238 215.498C508.844 214.683 508.642 213.788 508.648 212.883C508.654 211.977 508.868 211.085 509.274 210.275C509.68 209.466 510.266 208.76 510.987 208.212C511.709 207.665 512.546 207.291 513.435 207.119L513.541 207.607C512.721 207.765 511.948 208.11 511.283 208.616C510.618 209.122 510.079 209.775 509.709 210.524C509.338 211.272 509.145 212.097 509.146 212.932C509.147 213.767 509.341 214.591 509.712 215.34L509.238 215.498Z" fill="#4D8AF0"/>
<path id="Vector_33" d="M632.023 222.836C472.683 233.96 435.11 131.456 435.11 131.456L632.023 222.836Z" fill="#FFD180"/>
</g>
<path id="Vector_34" d="M216.256 578.336H195.377V754.857C195.377 754.857 330.141 798.513 461.109 754.857V578.336H216.256Z" fill="#3F3D56"/>
<path id="Vector_35" d="M326.345 599.215C398.676 599.215 457.313 590.292 457.313 579.285C457.313 568.278 398.676 559.355 326.345 559.355C254.013 559.355 195.377 568.278 195.377 579.285C195.377 590.292 254.013 599.215 326.345 599.215Z" fill="#3F3D56"/>
<path id="Vector_36" opacity="0.1" d="M326.345 599.215C398.676 599.215 457.313 590.292 457.313 579.285C457.313 568.278 398.676 559.355 326.345 559.355C254.013 559.355 195.377 568.278 195.377 579.285C195.377 590.292 254.013 599.215 326.345 599.215Z" fill="black"/>
<path id="Vector_37" d="M478.586 367.432C445.548 489.564 332.382 565.203 332.382 565.203C332.382 565.203 272.783 442.828 305.822 320.696C338.861 198.565 452.026 122.926 452.026 122.926C452.026 122.926 511.625 245.301 478.586 367.432Z" fill="#3F3D56"/>
<path id="Vector_38" d="M178.025 367.432C211.064 489.564 324.229 565.203 324.229 565.203C324.229 565.203 383.828 442.828 350.789 320.696C317.751 198.565 204.585 122.926 204.585 122.926C204.585 122.926 144.986 245.301 178.025 367.432Z" fill="#6C63FF"/>
<path id="Vector_39" d="M226.573 341.185C317.232 429.438 328.306 565.103 328.306 565.103C328.306 565.103 192.392 557.682 101.732 469.429C11.0734 381.176 0 245.511 0 245.511C0 245.511 135.914 252.932 226.573 341.185Z" fill="#3F3D56"/>
<path id="Vector_40" d="M430.038 341.185C339.379 429.438 328.306 565.103 328.306 565.103C328.306 565.103 464.22 557.682 554.879 469.429C645.538 381.176 656.611 245.511 656.611 245.511C656.611 245.511 520.697 252.932 430.038 341.185Z" fill="#3F3D56"/>
<path id="Vector_41" d="M328.243 164.554C351.305 164.554 370.001 145.858 370.001 122.796C370.001 99.7335 351.305 81.0379 328.243 81.0379C305.181 81.0379 286.485 99.7335 286.485 122.796C286.485 145.858 305.181 164.554 328.243 164.554Z" fill="#6C63FF"/>
<g id="Group_2" opacity="0.5">
<path id="Vector_42" opacity="0.5" d="M708.209 825.589C760.123 825.589 802.209 783.503 802.209 731.589C802.209 679.674 760.123 637.589 708.209 637.589C656.294 637.589 614.209 679.674 614.209 731.589C614.209 783.503 656.294 825.589 708.209 825.589Z" fill="url(#paint1_linear)"/>
</g>
<path id="Vector_43" d="M708.209 819.589C756.81 819.589 796.209 780.19 796.209 731.589C796.209 682.988 756.81 643.589 708.209 643.589C659.608 643.589 620.209 682.988 620.209 731.589C620.209 780.19 659.608 819.589 708.209 819.589Z" fill="#F55F44"/>
<g id="Group_3" opacity="0.5">
<path id="Vector_44" opacity="0.5" d="M452.881 791.644C439.593 792.818 424.981 786.217 422.113 773.047C420.456 765.44 423.078 758.003 425.613 750.811C428.392 742.929 430.793 736.121 427.324 730.515C425.744 727.962 422.984 726.027 420.237 724.316C416.657 722.089 412.815 720.031 409.099 718.042C402.679 714.603 396.04 711.048 390.138 706.333C378.54 697.066 372.675 684.704 374.448 673.265C375.98 663.381 382.663 655.809 389.126 648.487C395.754 640.977 402.015 633.883 401.868 625.201C401.67 613.392 389.6 604.913 378.951 597.432L377.289 596.262C364.294 587.097 351.812 571.189 359.401 556.525C362.05 551.406 366.471 548.12 370.746 544.943C373.627 542.996 376.255 540.698 378.569 538.104C386.382 528.426 382.395 514.093 380.318 508.379C378.739 504.037 376.675 499.702 374.678 495.512C371.73 489.322 368.68 482.921 366.91 476.016L366.619 474.883C362.351 458.262 362.355 457.641 366.866 441.693L367.428 439.703L374.166 441.603L373.602 443.598C369.519 458.033 369.519 458.033 373.399 473.143L373.69 474.277C375.292 480.524 378.064 486.342 380.998 492.501C383.065 496.841 385.203 501.329 386.897 505.988C392.145 520.424 391.095 533.733 384.016 542.501C381.339 545.563 378.283 548.272 374.921 550.561C371.117 553.388 367.524 556.059 365.618 559.742C359.716 571.147 372.713 584.469 381.324 590.542L382.974 591.704C394.396 599.727 408.609 609.712 408.868 625.082C409.059 636.48 401.594 644.938 394.374 653.118C388.311 659.989 382.584 666.478 381.365 674.338C379.735 684.85 387.086 694.933 394.508 700.865C399.909 705.179 405.978 708.429 412.404 711.87C416.218 713.913 420.162 716.025 423.936 718.374C427.406 720.534 430.939 723.054 433.277 726.832C438.509 735.287 435.31 744.363 432.215 753.139C429.903 759.698 427.719 765.892 428.953 771.557C431.182 781.793 444.609 786.451 455.262 784.231C463.98 782.414 471.653 777.625 479.776 772.557C482.403 770.917 485.12 769.222 487.856 767.649C502.789 759.072 516.319 756.977 526.987 761.586C530.347 763.169 533.526 765.109 536.47 767.373C538.762 769.116 541.195 770.667 543.743 772.01C549.542 774.54 556.081 774.793 562.058 772.717C568.035 770.641 573.01 766.39 575.992 760.81C576.505 759.741 576.967 758.593 577.457 757.379C579.011 753.521 580.772 749.149 584.793 746.406C589.004 743.535 594.192 743.578 597.981 743.61L637.117 743.942L637.057 750.941L597.921 750.609C594.209 750.578 590.957 750.676 588.737 752.189C586.471 753.734 585.246 756.775 583.95 759.994C583.441 761.259 582.914 762.567 582.302 763.841C578.512 771.102 572.093 776.642 564.355 779.33C556.618 782.017 548.146 781.648 540.671 778.3C537.771 776.79 535.003 775.04 532.397 773.066C529.853 771.098 527.108 769.404 524.209 768.012C513.395 763.335 500.367 768.535 491.343 773.719C488.717 775.228 486.056 776.889 483.482 778.495C475.196 783.666 466.628 789.012 456.69 791.083C455.432 791.345 454.16 791.532 452.881 791.644Z" fill="url(#paint2_linear)"/>
</g>
<path id="Vector_45" d="M454.609 788.48C441.321 789.654 426.709 783.053 423.841 769.883C422.184 762.276 424.806 754.838 427.342 747.647C430.121 739.764 432.521 732.956 429.052 727.35C427.473 724.798 424.712 722.862 421.965 721.152C418.385 718.924 414.543 716.867 410.827 714.877C404.407 711.439 397.768 707.883 391.867 703.168C380.268 693.901 374.403 681.539 376.176 670.101C377.708 660.217 384.391 652.645 390.855 645.322C397.483 637.812 403.743 630.719 403.597 622.036C403.398 610.228 391.328 601.748 380.679 594.268L379.017 593.098C366.022 583.932 353.54 568.025 361.129 553.36C363.778 548.241 368.199 544.956 372.474 541.778C375.355 539.831 377.983 537.534 380.298 534.939C388.111 525.262 384.123 510.928 382.047 505.215C380.467 500.872 378.403 496.538 376.407 492.348C373.458 486.157 370.409 479.756 368.638 472.851L368.347 471.718C364.079 455.098 364.084 454.477 368.594 438.529L369.157 436.538L375.894 438.438L375.33 440.434C371.248 454.868 371.247 454.868 375.127 469.978L375.418 471.112C377.021 477.36 379.792 483.177 382.726 489.337C384.793 493.676 386.932 498.165 388.625 502.824C393.873 517.26 392.823 530.569 385.744 539.336C383.067 542.399 380.011 545.107 376.649 547.396C372.845 550.224 369.252 552.895 367.346 556.578C361.444 567.982 374.442 581.304 383.052 587.378L384.703 588.54C396.124 596.563 410.337 606.548 410.596 621.918C410.788 633.315 403.322 641.774 396.102 649.953C390.039 656.824 384.312 663.313 383.093 671.174C381.464 681.686 388.814 691.769 396.236 697.7C401.637 702.015 407.706 705.265 414.132 708.706C417.946 710.748 421.89 712.861 425.664 715.21C429.134 717.37 432.667 719.89 435.005 723.668C440.237 732.123 437.038 741.198 433.944 749.974C431.631 756.533 429.447 762.728 430.681 768.392C432.91 778.629 446.337 783.286 456.99 781.067C465.708 779.25 473.381 774.461 481.504 769.393C484.131 767.753 486.848 766.058 489.584 764.485C504.517 755.908 518.048 753.813 528.715 758.422C532.075 760.005 535.254 761.945 538.198 764.209C540.491 765.952 542.923 767.503 545.472 768.845C551.27 771.376 557.81 771.628 563.786 769.553C569.763 767.477 574.738 763.226 577.72 757.646C578.233 756.577 578.696 755.429 579.185 754.214C580.739 750.357 582.5 745.984 586.521 743.242C590.732 740.371 595.92 740.414 599.709 740.446L638.845 740.777L638.785 747.777L599.65 747.445C595.937 747.414 592.685 747.512 590.465 749.025C588.2 750.57 586.975 753.61 585.678 756.83C585.169 758.094 584.642 759.403 584.03 760.676C580.24 767.938 573.821 773.478 566.083 776.165C558.346 778.853 549.874 778.484 542.399 775.135C539.499 773.626 536.731 771.875 534.125 769.902C531.581 767.934 528.837 766.24 525.937 764.848C515.123 760.171 502.095 765.371 493.072 770.555C490.446 772.063 487.784 773.725 485.21 775.331C476.924 780.502 468.357 785.848 458.418 787.919C457.16 788.18 455.889 788.368 454.609 788.48V788.48Z" fill="#F55F44"/>
<path id="Vector_46" opacity="0.2" d="M717.782 669.505C717.782 669.505 766.842 673.704 774.174 745.337" stroke="black" stroke-miterlimit="10"/>
<path id="Vector_47" opacity="0.2" d="M640.138 762.198C640.138 762.198 616.928 704.014 692.718 664.19" stroke="black" stroke-miterlimit="10"/>
<path id="Vector_48" opacity="0.2" d="M658.917 747.488C658.917 747.488 648.22 717.312 671.627 698.178" stroke="black" stroke-miterlimit="10"/>
<path id="Vector_49" opacity="0.2" d="M703.503 695.362C703.503 695.362 723.837 709.628 717.396 750.353" stroke="black" stroke-miterlimit="10"/>
<path id="Vector_50" opacity="0.2" d="M741.087 654.898C741.087 654.898 774.547 670.012 787.356 724.095" stroke="black" stroke-miterlimit="10"/>
<path id="Vector_51" opacity="0.2" d="M692.277 659.21C692.277 659.21 711.672 651.473 725.59 661.286" stroke="black" stroke-miterlimit="10"/>
<path id="Vector_52" opacity="0.2" d="M678.227 772.887C678.227 772.887 697.009 792.31 763.893 765.319" stroke="black" stroke-miterlimit="10"/>
<path id="Vector_53" opacity="0.2" d="M655.861 667.446C655.861 667.446 630.55 687.753 630.905 725.869" stroke="black" stroke-miterlimit="10"/>
<path id="Vector_54" opacity="0.2" d="M653.088 761.054C653.088 761.054 648.167 773.535 661.089 783.436" stroke="black" stroke-miterlimit="10"/>
<path id="Vector_55" opacity="0.2" d="M771.658 773.668C771.658 773.668 764.805 798.367 750.595 796.611" stroke="black" stroke-miterlimit="10"/>
<path id="Vector_56" opacity="0.2" d="M729.725 708.104C729.725 708.104 739.747 719.265 735.002 733.739" stroke="black" stroke-miterlimit="10"/>
<path id="Vector_57" opacity="0.2" d="M680.008 713.5C680.008 713.5 672.45 730.23 678.575 742.74" stroke="black" stroke-miterlimit="10"/>
<path id="Vector_58" opacity="0.2" d="M690.965 712.532C690.965 712.532 699.61 730.842 693.517 741.42" stroke="black" stroke-miterlimit="10"/>
</g>
<defs>
<linearGradient id="paint0_linear" x1="502.342" y1="229.741" x2="511.259" y2="211.839" gradientUnits="userSpaceOnUse">
<stop stop-color="white"/>
<stop offset="1"/>
</linearGradient>
<linearGradient id="paint1_linear" x1="716.479" y1="825.225" x2="699.935" y2="637.954" gradientUnits="userSpaceOnUse">
<stop stop-color="#808080" stop-opacity="0.25"/>
<stop offset="0.53514" stop-color="#808080" stop-opacity="0.12"/>
<stop offset="1" stop-color="#808080" stop-opacity="0.1"/>
</linearGradient>
<linearGradient id="paint2_linear" x1="344818" y1="374602" x2="333723" y2="249014" gradientUnits="userSpaceOnUse">
<stop stop-color="#808080" stop-opacity="0.25"/>
<stop offset="0.53514" stop-color="#808080" stop-opacity="0.12"/>
<stop offset="1" stop-color="#808080" stop-opacity="0.1"/>
</linearGradient>
<clipPath id="clip0">
<rect width="802.214" height="825.594" fill="white"/>
</clipPath>
</defs>
</svg>
